<!-- Generated by IcoMoon.io -->
<svg version="1.1" xmlns="http://www.w3.org/2000/svg" width="18" height="18" viewBox="0 0 18 18">
<title>trash</title>
<path d="M17 5h-4v-3c0-0.552-0.448-1-1-1h-6c-0.552 0-1 0.448-1 1v3h-4c-0.552 0-1 0.448-1 1v1h2v9c0 0.552 0.448 1 1 1h12c0.552 0 1-0.448 1-1v-9h2v-1c0-0.552-0.448-1-1-1zM7 3h4v2h-4v-2zM14 15h-10v-8h10v8z"></path>
<path d="M6.5 13h1c0.276 0 0.5-0.224 0.5-0.5v-3c0-0.276-0.224-0.5-0.5-0.5h-1c-0.276 0-0.5 0.224-0.5 0.5v3c0 0.276 0.224 0.5 0.5 0.5z"></path>
<path d="M10.5 13h1c0.276 0 0.5-0.224 0.5-0.5v-3c0-0.276-0.224-0.5-0.5-0.5h-1c-0.276 0-0.5 0.224-0.5 0.5v3c0 0.276 0.224 0.5 0.5 0.5z"></path>
</svg>
