<!-- Generated by IcoMoon.io -->
<svg version="1.1" xmlns="http://www.w3.org/2000/svg" width="18" height="18" viewBox="0 0 18 18">
<title>write</title>
<path d="M16.001 11c-0.553 0-1 0.448-1 1v2.5c0 0.276-0.224 0.5-0.5 0.5h-11.002c-0.276 0-0.5-0.224-0.5-0.5v-11c0-0.276 0.224-0.5 0.5-0.5h2.5c0.553 0 1-0.448 1-1s-0.448-1-1-1h-4c-0.553 0-1 0.448-1 1v14c0 0.552 0.448 1 1 1h14.002c0.553 0 1-0.448 1-1v-4c0-0.552-0.447-1-1-1z"></path>
<path d="M13.169 3.403l1.429 1.429-5.948 6.168h-1.65v-1.65l6.169-5.947zM13.182 1c-0.256 0-0.511 0.097-0.706 0.292l-7.476 7.208v4.5h4.501l7.209-7.475c0.39-0.39 0.39-1.021 0-1.411l-2.822-2.822c-0.194-0.195-0.45-0.292-0.705-0.292v0z"></path>
</svg>
